<svg width="114" height="130" viewBox="0 0 114 130" fill="none" xmlns="http://www.w3.org/2000/svg">
<g opacity="0.6">
<path d="M73.1013 32.5729L71.681 30.8641L69.7366 31.0395L69.3969 28.974L70.0629 29.0652L68.9663 27.7162L74.7142 23.3298L75.8936 30.8733L74.2193 30.9594L74.7408 31.4094L73.1013 32.5729Z" fill="#28DCB2"/>
<path d="M85.5235 74.4931L83.158 71.7295L87.7557 68.3595L90.1213 71.1231L85.5235 74.4931ZM77.8579 65.3112L75.4923 62.5476L80.0901 59.1776L82.4556 61.9412L77.8579 65.3112ZM71.3878 53.73L70.8926 50.348L76.9829 50.1844L77.4781 53.5664L71.3878 53.73ZM69.6006 42.6046L69.1054 39.2226L75.1957 39.0591L75.6909 42.4411L69.6006 42.6046Z" fill="#28DCB2"/>
<path d="M91.2537 83.539L90.9737 81.9525L90.3737 82.3038L89.1768 80.7155L90.5891 79.4846L90.3799 77.722L92.2846 77.5494L92.46 78.2546L93.7308 77.3759L98.9248 83.2893L91.2537 83.539Z" fill="#28DCB2"/>
<path d="M51.1913 96.3166L47.1005 91.5027L49.738 89.5516L53.8287 94.3655L51.1913 96.3166ZM60.0481 89.8428L55.9574 85.0288L58.5949 83.0777L62.6856 87.8917L60.0481 89.8428ZM68.2969 86.0366L67.4125 80.1626L70.9206 80.0819L71.805 85.9559L68.2969 86.0366ZM80.0145 85.7083L79.1301 79.8343L82.6382 79.7536L83.5226 85.6276L80.0145 85.7083Z" fill="#28DCB2"/>
<path d="M38.8291 106.686L37.8478 99.2323L39.5221 99.1461L39.0728 98.5167L40.6402 97.5325L41.9347 98.9717L44.0049 99.066L44.4167 100.952L43.6785 101.04L44.7751 102.389L38.8291 106.686Z" fill="#28DCB2"/>
<path d="M38.4786 91.2339L37.9834 87.8519L44.0737 87.6884L44.5688 91.0703L38.4786 91.2339ZM36.7627 79.9308L36.2676 76.5488L42.3578 76.3853L42.853 79.7673L36.7627 79.9308ZM33.6556 70.9377L31.29 68.174L35.8877 64.8041L38.2533 67.5677L33.6556 70.9377ZM25.7941 61.6663L23.4286 58.9027L28.0263 55.5328L30.3919 58.2964L25.7941 61.6663Z" fill="#28DCB2"/>
<path d="M20.0139 52.7306L14.8909 46.6412L22.4913 46.5671L22.7712 48.1537L23.1774 47.7138L24.5682 49.3906L23.0327 50.357L23.3649 52.3843L21.2663 52.4685L21.2848 51.8518L20.0139 52.7306Z" fill="#28DCB2"/>
<path d="M31.1068 50.3558L30.2227 44.483L33.73 44.4023L34.6141 50.2751L31.1068 50.3558ZM42.8216 50.0276L41.9374 44.1549L45.4447 44.0742L46.3289 49.947L42.8216 50.0276ZM55.1444 47.0324L51.0546 42.2195L53.6914 40.2688L57.7812 45.0818L55.1444 47.0324ZM63.9277 40.7377L59.8379 35.9248L62.4748 33.9741L66.5646 38.7871L63.9277 40.7377Z" fill="#28DCB2"/>
</g>
</svg>
