<svg width="140" height="142" viewBox="0 0 140 142" fill="none" xmlns="http://www.w3.org/2000/svg">
<path d="M138.337 38.6008C139.286 38.6008 139.998 37.889 139.998 36.9398C139.998 35.9907 139.286 35.2788 138.337 35.2788C137.388 35.2788 136.676 35.9907 136.676 36.9398C136.676 37.7703 137.388 38.6008 138.337 38.6008Z" fill="#D8DBEA"/>
<path d="M121.252 38.6008C122.201 38.6008 122.913 37.889 122.913 36.9398C122.913 35.9907 122.201 35.2788 121.252 35.2788C120.302 35.2788 119.591 35.9907 119.591 36.9398C119.591 37.7703 120.302 38.6008 121.252 38.6008Z" fill="#D8DBEA"/>
<path d="M138.337 21.5159C139.286 21.5159 139.998 20.804 139.998 19.8549C139.998 18.9057 139.286 18.1938 138.337 18.1938C137.388 18.1938 136.676 18.9057 136.676 19.8549C136.676 20.804 137.388 21.5159 138.337 21.5159Z" fill="#D8DBEA"/>
<path d="M121.252 21.5159C122.201 21.5159 122.913 20.804 122.913 19.8549C122.913 18.9057 122.201 18.1938 121.252 18.1938C120.302 18.1938 119.591 18.9057 119.591 19.8549C119.591 20.804 120.302 21.5159 121.252 21.5159Z" fill="#D8DBEA"/>
<path d="M112.71 30.0584C113.659 30.0584 114.371 29.3465 114.371 28.3973C114.371 27.4482 113.659 26.7363 112.71 26.7363C111.761 26.7363 111.049 27.4482 111.049 28.3973C111.049 29.2279 111.761 30.0584 112.71 30.0584Z" fill="#D8DBEA"/>
<path d="M129.795 30.0584C130.745 30.0584 131.456 29.3465 131.456 28.3973C131.456 27.4482 130.745 26.7363 129.795 26.7363C128.846 26.7363 128.134 27.4482 128.134 28.3973C128.134 29.2279 128.846 30.0584 129.795 30.0584Z" fill="#D8DBEA"/>
<path d="M112.711 12.9739C113.66 12.9739 114.372 12.262 114.372 11.3129C114.372 10.3637 113.66 9.65186 112.711 9.65186C111.761 9.65186 111.05 10.3637 111.05 11.3129C111.05 12.1434 111.761 12.9739 112.711 12.9739Z" fill="#D8DBEA"/>
<path d="M129.795 12.9734C130.745 12.9734 131.456 12.2615 131.456 11.3124C131.456 10.3632 130.745 9.65137 129.795 9.65137C128.846 9.65137 128.134 10.3632 128.134 11.3124C128.134 12.1429 128.846 12.9734 129.795 12.9734Z" fill="#D8DBEA"/>
<path d="M104.168 38.6008C105.117 38.6008 105.829 37.889 105.829 36.9398C105.829 35.9907 105.117 35.2788 104.168 35.2788C103.219 35.2788 102.507 35.9907 102.507 36.9398C102.507 37.7703 103.219 38.6008 104.168 38.6008Z" fill="#D8DBEA"/>
<path d="M104.168 21.5159C105.117 21.5159 105.829 20.804 105.829 19.8549C105.829 18.9057 105.117 18.1938 104.168 18.1938C103.219 18.1938 102.507 18.9057 102.507 19.8549C102.507 20.804 103.219 21.5159 104.168 21.5159Z" fill="#D8DBEA"/>
<path d="M138.34 4.4314C139.289 4.4314 140.001 3.71954 140.001 2.77038C140.001 1.82123 139.289 0.990723 138.34 0.990723C137.391 0.990723 136.679 1.70259 136.679 2.65174C136.679 3.60089 137.391 4.4314 138.34 4.4314Z" fill="#D8DBEA"/>
<path d="M121.254 4.4314C122.203 4.4314 122.915 3.71954 122.915 2.77038C122.915 1.82123 122.203 0.990723 121.254 0.990723C120.305 0.990723 119.593 1.70259 119.593 2.65174C119.593 3.60089 120.305 4.4314 121.254 4.4314Z" fill="#D8DBEA"/>
<path d="M104.17 4.4314C105.119 4.4314 105.831 3.71954 105.831 2.77038C105.831 1.82123 105.119 0.990723 104.17 0.990723C103.221 0.990723 102.509 1.70259 102.509 2.65174C102.509 3.60089 103.221 4.4314 104.17 4.4314Z" fill="#D8DBEA"/>
<path d="M138.337 72.7703C139.286 72.7703 139.998 72.0584 139.998 71.1093C139.998 70.1601 139.286 69.4482 138.337 69.4482C137.388 69.4482 136.676 70.1601 136.676 71.1093C136.676 71.9398 137.388 72.7703 138.337 72.7703Z" fill="#D8DBEA"/>
<path d="M121.252 72.7703C122.201 72.7703 122.913 72.0584 122.913 71.1093C122.913 70.1601 122.201 69.4482 121.252 69.4482C120.302 69.4482 119.591 70.1601 119.591 71.1093C119.591 71.9398 120.302 72.7703 121.252 72.7703Z" fill="#D8DBEA"/>
<path d="M138.337 55.6853C139.286 55.6853 139.998 54.9735 139.998 54.0243C139.998 53.0751 139.286 52.3633 138.337 52.3633C137.388 52.3633 136.676 53.0751 136.676 54.0243C136.676 54.8548 137.388 55.6853 138.337 55.6853Z" fill="#D8DBEA"/>
<path d="M121.252 55.6853C122.201 55.6853 122.913 54.9735 122.913 54.0243C122.913 53.0751 122.201 52.3633 121.252 52.3633C120.302 52.3633 119.591 53.0751 119.591 54.0243C119.591 54.8548 120.302 55.6853 121.252 55.6853Z" fill="#D8DBEA"/>
<path d="M112.71 64.2273C113.659 64.2273 114.371 63.5154 114.371 62.5663C114.371 61.6171 113.659 60.9053 112.71 60.9053C111.761 60.9053 111.049 61.6171 111.049 62.5663C111.049 63.3968 111.761 64.2273 112.71 64.2273Z" fill="#D8DBEA"/>
<path d="M129.795 64.2273C130.745 64.2273 131.456 63.5154 131.456 62.5663C131.456 61.6171 130.745 60.9053 129.795 60.9053C128.846 60.9053 128.134 61.6171 128.134 62.5663C128.134 63.3968 128.846 64.2273 129.795 64.2273Z" fill="#D8DBEA"/>
<path d="M112.711 47.1428C113.66 47.1428 114.372 46.431 114.372 45.4818C114.372 44.5327 113.66 43.8208 112.711 43.8208C111.761 43.8208 111.05 44.5327 111.05 45.4818C111.05 46.3123 111.761 47.1428 112.711 47.1428Z" fill="#D8DBEA"/>
<path d="M129.795 47.1428C130.745 47.1428 131.456 46.431 131.456 45.4818C131.456 44.5327 130.745 43.8208 129.795 43.8208C128.846 43.8208 128.134 44.5327 128.134 45.4818C128.134 46.3123 128.846 47.1428 129.795 47.1428Z" fill="#D8DBEA"/>
<path d="M104.168 72.7698C105.117 72.7698 105.829 72.0579 105.829 71.1088C105.829 70.1596 105.117 69.4478 104.168 69.4478C103.219 69.4478 102.507 70.1596 102.507 71.1088C102.507 71.9393 103.219 72.7698 104.168 72.7698Z" fill="#D8DBEA"/>
<path d="M104.168 55.6853C105.117 55.6853 105.829 54.9735 105.829 54.0243C105.829 53.0751 105.117 52.3633 104.168 52.3633C103.219 52.3633 102.507 53.0751 102.507 54.0243C102.507 54.8548 103.219 55.6853 104.168 55.6853Z" fill="#D8DBEA"/>
<path d="M138.34 38.6004C139.289 38.6004 140.001 37.8885 140.001 36.9393C140.001 35.9902 139.289 35.2783 138.34 35.2783C137.391 35.2783 136.679 35.9902 136.679 36.9393C136.679 37.7698 137.391 38.6004 138.34 38.6004Z" fill="#D8DBEA"/>
<path d="M121.254 38.6004C122.203 38.6004 122.915 37.8885 122.915 36.9393C122.915 35.9902 122.203 35.2783 121.254 35.2783C120.305 35.2783 119.593 35.9902 119.593 36.9393C119.593 37.7698 120.305 38.6004 121.254 38.6004Z" fill="#D8DBEA"/>
<path d="M104.17 38.6008C105.119 38.6008 105.831 37.889 105.831 36.9398C105.831 35.9907 105.119 35.2788 104.17 35.2788C103.221 35.2788 102.509 35.9907 102.509 36.9398C102.509 37.7703 103.221 38.6008 104.17 38.6008Z" fill="#D8DBEA"/>
<path d="M138.337 106.94C139.286 106.94 139.998 106.228 139.998 105.279C139.998 104.33 139.286 103.618 138.337 103.618C137.388 103.618 136.676 104.33 136.676 105.279C136.676 106.109 137.388 106.94 138.337 106.94Z" fill="#D8DBEA"/>
<path d="M121.252 106.94C122.201 106.94 122.913 106.228 122.913 105.279C122.913 104.33 122.201 103.618 121.252 103.618C120.302 103.618 119.591 104.33 119.591 105.279C119.591 106.109 120.302 106.94 121.252 106.94Z" fill="#D8DBEA"/>
<path d="M138.337 89.8548C139.286 89.8548 139.998 89.1429 139.998 88.1937C139.998 87.2446 139.286 86.5327 138.337 86.5327C137.388 86.5327 136.676 87.2446 136.676 88.1937C136.676 89.0242 137.388 89.8548 138.337 89.8548Z" fill="#D8DBEA"/>
<path d="M121.252 89.8548C122.201 89.8548 122.913 89.1429 122.913 88.1937C122.913 87.2446 122.201 86.5327 121.252 86.5327C120.302 86.5327 119.591 87.2446 119.591 88.1937C119.591 89.0242 120.302 89.8548 121.252 89.8548Z" fill="#D8DBEA"/>
<path d="M112.71 98.3972C113.659 98.3972 114.371 97.6854 114.371 96.7362C114.371 95.7871 113.659 95.0752 112.71 95.0752C111.761 95.0752 111.049 95.7871 111.049 96.7362C111.049 97.5667 111.761 98.3972 112.71 98.3972Z" fill="#D8DBEA"/>
<path d="M129.795 98.3972C130.745 98.3972 131.456 97.6854 131.456 96.7362C131.456 95.7871 130.745 95.0752 129.795 95.0752C128.846 95.0752 128.134 95.7871 128.134 96.7362C128.134 97.5667 128.846 98.3972 129.795 98.3972Z" fill="#D8DBEA"/>
<path d="M112.711 81.3128C113.66 81.3128 114.372 80.6009 114.372 79.6517C114.372 78.7026 113.66 77.9907 112.711 77.9907C111.761 77.9907 111.05 78.7026 111.05 79.6517C111.05 80.4822 111.761 81.3128 112.711 81.3128Z" fill="#D8DBEA"/>
<path d="M129.795 81.3128C130.745 81.3128 131.456 80.6009 131.456 79.6517C131.456 78.7026 130.745 77.9907 129.795 77.9907C128.846 77.9907 128.134 78.7026 128.134 79.6517C128.134 80.4822 128.846 81.3128 129.795 81.3128Z" fill="#D8DBEA"/>
<path d="M104.168 106.939C105.117 106.939 105.829 106.227 105.829 105.278C105.829 104.329 105.117 103.617 104.168 103.617C103.219 103.617 102.507 104.329 102.507 105.278C102.507 106.109 103.219 106.939 104.168 106.939Z" fill="#D8DBEA"/>
<path d="M104.168 89.8548C105.117 89.8548 105.829 89.1429 105.829 88.1937C105.829 87.2446 105.117 86.5327 104.168 86.5327C103.219 86.5327 102.507 87.2446 102.507 88.1937C102.507 89.0242 103.219 89.8548 104.168 89.8548Z" fill="#D8DBEA"/>
<path d="M138.34 72.7703C139.289 72.7703 140.001 72.0584 140.001 71.1093C140.001 70.1601 139.289 69.4482 138.34 69.4482C137.391 69.4482 136.679 70.1601 136.679 71.1093C136.679 71.9398 137.391 72.7703 138.34 72.7703Z" fill="#D8DBEA"/>
<path d="M121.254 72.7703C122.203 72.7703 122.915 72.0584 122.915 71.1093C122.915 70.1601 122.203 69.4482 121.254 69.4482C120.305 69.4482 119.593 70.1601 119.593 71.1093C119.593 71.9398 120.305 72.7703 121.254 72.7703Z" fill="#D8DBEA"/>
<path d="M104.17 72.7703C105.119 72.7703 105.831 72.0584 105.831 71.1093C105.831 70.1601 105.119 69.4482 104.17 69.4482C103.221 69.4482 102.509 70.1601 102.509 71.1093C102.509 71.9398 103.221 72.7703 104.17 72.7703Z" fill="#D8DBEA"/>
<path d="M138.337 141.11C139.286 141.11 139.998 140.398 139.998 139.449C139.998 138.499 139.286 137.788 138.337 137.788C137.388 137.788 136.676 138.499 136.676 139.449C136.676 140.398 137.388 141.11 138.337 141.11Z" fill="#D8DBEA"/>
<path d="M121.252 141.11C122.201 141.11 122.913 140.398 122.913 139.449C122.913 138.499 122.201 137.788 121.252 137.788C120.302 137.788 119.591 138.499 119.591 139.449C119.591 140.398 120.302 141.11 121.252 141.11Z" fill="#D8DBEA"/>
<path d="M138.337 124.025C139.286 124.025 139.998 123.313 139.998 122.364C139.998 121.415 139.286 120.703 138.337 120.703C137.388 120.703 136.676 121.415 136.676 122.364C136.676 123.194 137.388 124.025 138.337 124.025Z" fill="#D8DBEA"/>
<path d="M121.252 124.025C122.201 124.025 122.913 123.313 122.913 122.364C122.913 121.415 122.201 120.703 121.252 120.703C120.302 120.703 119.591 121.415 119.591 122.364C119.591 123.194 120.302 124.025 121.252 124.025Z" fill="#D8DBEA"/>
<path d="M112.71 132.567C113.659 132.567 114.371 131.855 114.371 130.906C114.371 129.956 113.659 129.245 112.71 129.245C111.761 129.245 111.049 129.956 111.049 130.906C111.049 131.736 111.761 132.567 112.71 132.567Z" fill="#D8DBEA"/>
<path d="M129.795 132.567C130.745 132.567 131.456 131.855 131.456 130.906C131.456 129.956 130.745 129.245 129.795 129.245C128.846 129.245 128.134 129.956 128.134 130.906C128.134 131.736 128.846 132.567 129.795 132.567Z" fill="#D8DBEA"/>
<path d="M112.711 115.482C113.66 115.482 114.372 114.77 114.372 113.821C114.372 112.872 113.66 112.16 112.711 112.16C111.761 112.16 111.05 112.872 111.05 113.821C111.05 114.652 111.761 115.482 112.711 115.482Z" fill="#D8DBEA"/>
<path d="M129.795 115.482C130.745 115.482 131.456 114.77 131.456 113.821C131.456 112.872 130.745 112.16 129.795 112.16C128.846 112.16 128.134 112.872 128.134 113.821C128.134 114.652 128.846 115.482 129.795 115.482Z" fill="#D8DBEA"/>
<path d="M104.168 141.109C105.117 141.109 105.829 140.397 105.829 139.448C105.829 138.499 105.117 137.787 104.168 137.787C103.219 137.787 102.507 138.499 102.507 139.448C102.507 140.397 103.219 141.109 104.168 141.109Z" fill="#D8DBEA"/>
<path d="M104.168 124.025C105.117 124.025 105.829 123.313 105.829 122.364C105.829 121.415 105.117 120.703 104.168 120.703C103.219 120.703 102.507 121.415 102.507 122.364C102.507 123.194 103.219 124.025 104.168 124.025Z" fill="#D8DBEA"/>
<path d="M138.34 106.94C139.289 106.94 140.001 106.228 140.001 105.279C140.001 104.33 139.289 103.618 138.34 103.618C137.391 103.618 136.679 104.33 136.679 105.279C136.679 106.11 137.391 106.94 138.34 106.94Z" fill="#D8DBEA"/>
<path d="M121.254 106.94C122.203 106.94 122.915 106.228 122.915 105.279C122.915 104.33 122.203 103.618 121.254 103.618C120.305 103.618 119.593 104.33 119.593 105.279C119.593 106.109 120.305 106.94 121.254 106.94Z" fill="#D8DBEA"/>
<path d="M104.17 106.94C105.119 106.94 105.831 106.228 105.831 105.279C105.831 104.33 105.119 103.618 104.17 103.618C103.221 103.618 102.509 104.33 102.509 105.279C102.509 106.109 103.221 106.94 104.17 106.94Z" fill="#D8DBEA"/>
<path d="M104.167 38.6008C105.117 38.6008 105.828 37.889 105.828 36.9398C105.828 35.9907 105.117 35.2788 104.167 35.2788C103.218 35.2788 102.506 35.9907 102.506 36.9398C102.506 37.7703 103.218 38.6008 104.167 38.6008Z" fill="#D8DBEA"/>
<path d="M87.0822 38.6008C88.0313 38.6008 88.7432 37.889 88.7432 36.9398C88.7432 35.9907 88.0313 35.2788 87.0822 35.2788C86.133 35.2788 85.4211 35.9907 85.4211 36.9398C85.4211 37.7703 86.133 38.6008 87.0822 38.6008Z" fill="#D8DBEA"/>
<path d="M104.167 21.5159C105.117 21.5159 105.828 20.804 105.828 19.8549C105.828 18.9057 105.117 18.1938 104.167 18.1938C103.218 18.1938 102.506 18.9057 102.506 19.8549C102.506 20.804 103.218 21.5159 104.167 21.5159Z" fill="#D8DBEA"/>
<path d="M87.0822 21.5159C88.0313 21.5159 88.7432 20.804 88.7432 19.8549C88.7432 18.9057 88.0313 18.1938 87.0822 18.1938C86.133 18.1938 85.4211 18.9057 85.4211 19.8549C85.4211 20.804 86.133 21.5159 87.0822 21.5159Z" fill="#D8DBEA"/>
<path d="M78.5407 30.0584C79.4899 30.0584 80.2017 29.3465 80.2017 28.3973C80.2017 27.4482 79.4899 26.7363 78.5407 26.7363C77.5916 26.7363 76.8797 27.4482 76.8797 28.3973C76.8797 29.2279 77.5916 30.0584 78.5407 30.0584Z" fill="#D8DBEA"/>
<path d="M95.6259 30.0584C96.5751 30.0584 97.2869 29.3465 97.2869 28.3973C97.2869 27.4482 96.5751 26.7363 95.6259 26.7363C94.6768 26.7363 93.9649 27.4482 93.9649 28.3973C93.9649 29.2279 94.6768 30.0584 95.6259 30.0584Z" fill="#D8DBEA"/>
<path d="M78.5407 12.9734C79.4899 12.9734 80.2017 12.2615 80.2017 11.3124C80.2017 10.3632 79.4899 9.65137 78.5407 9.65137C77.5916 9.65137 76.8797 10.3632 76.8797 11.3124C76.8797 12.1429 77.5916 12.9734 78.5407 12.9734Z" fill="#D8DBEA"/>
<path d="M95.6259 12.9734C96.5751 12.9734 97.2869 12.2615 97.2869 11.3124C97.2869 10.3632 96.5751 9.65137 95.6259 9.65137C94.6768 9.65137 93.9649 10.3632 93.9649 11.3124C93.9649 12.1429 94.6768 12.9734 95.6259 12.9734Z" fill="#D8DBEA"/>
<path d="M70.0008 38.6008C70.95 38.6008 71.6618 37.889 71.6618 36.9398C71.6618 35.9907 70.95 35.2788 70.0008 35.2788C69.0516 35.2788 68.3398 35.9907 68.3398 36.9398C68.3398 37.7703 69.0516 38.6008 70.0008 38.6008Z" fill="#D8DBEA"/>
<path d="M70.0002 21.5159C70.9493 21.5159 71.6612 20.804 71.6612 19.8549C71.6612 18.9057 70.9493 18.1938 70.0002 18.1938C69.051 18.1938 68.3392 18.9057 68.3392 19.8549C68.3392 20.804 69.051 21.5159 70.0002 21.5159Z" fill="#D8DBEA"/>
<path d="M104.17 4.4314C105.12 4.4314 105.831 3.71954 105.831 2.77038C105.831 1.82123 105.12 0.990723 104.17 0.990723C103.221 0.990723 102.509 1.70259 102.509 2.65174C102.509 3.60089 103.221 4.4314 104.17 4.4314Z" fill="#D8DBEA"/>
<path d="M87.0854 4.4314C88.0345 4.4314 88.7464 3.71954 88.7464 2.77038C88.7464 1.82123 88.0345 0.990723 87.0854 0.990723C86.1362 0.990723 85.4244 1.70259 85.4244 2.65174C85.4244 3.60089 86.1362 4.4314 87.0854 4.4314Z" fill="#D8DBEA"/>
<path d="M69.9995 4.4314C70.9487 4.4314 71.6605 3.71954 71.6605 2.77038C71.6605 1.82123 70.9487 0.990723 69.9995 0.990723C69.0504 0.990723 68.3385 1.70259 68.3385 2.65174C68.3385 3.60089 69.0504 4.4314 69.9995 4.4314Z" fill="#D8DBEA"/>
<path d="M104.167 72.7703C105.117 72.7703 105.828 72.0584 105.828 71.1093C105.828 70.1601 105.117 69.4482 104.167 69.4482C103.218 69.4482 102.506 70.1601 102.506 71.1093C102.506 71.9398 103.218 72.7703 104.167 72.7703Z" fill="#D8DBEA"/>
<path d="M87.0822 72.7703C88.0313 72.7703 88.7432 72.0584 88.7432 71.1093C88.7432 70.1601 88.0313 69.4482 87.0822 69.4482C86.133 69.4482 85.4211 70.1601 85.4211 71.1093C85.4211 71.9398 86.133 72.7703 87.0822 72.7703Z" fill="#D8DBEA"/>
<path d="M104.167 55.6853C105.117 55.6853 105.828 54.9735 105.828 54.0243C105.828 53.0751 105.117 52.3633 104.167 52.3633C103.218 52.3633 102.506 53.0751 102.506 54.0243C102.506 54.8548 103.218 55.6853 104.167 55.6853Z" fill="#D8DBEA"/>
<path d="M87.0822 55.6853C88.0313 55.6853 88.7432 54.9735 88.7432 54.0243C88.7432 53.0751 88.0313 52.3633 87.0822 52.3633C86.133 52.3633 85.4211 53.0751 85.4211 54.0243C85.4211 54.8548 86.133 55.6853 87.0822 55.6853Z" fill="#D8DBEA"/>
<path d="M78.5407 64.2273C79.4899 64.2273 80.2017 63.5154 80.2017 62.5663C80.2017 61.6171 79.4899 60.9053 78.5407 60.9053C77.5916 60.9053 76.8797 61.6171 76.8797 62.5663C76.8797 63.3968 77.5916 64.2273 78.5407 64.2273Z" fill="#D8DBEA"/>
<path d="M95.6259 64.2273C96.5751 64.2273 97.2869 63.5154 97.2869 62.5663C97.2869 61.6171 96.5751 60.9053 95.6259 60.9053C94.6768 60.9053 93.9649 61.6171 93.9649 62.5663C93.9649 63.3968 94.6768 64.2273 95.6259 64.2273Z" fill="#D8DBEA"/>
<path d="M78.5407 47.1428C79.4899 47.1428 80.2017 46.431 80.2017 45.4818C80.2017 44.5327 79.4899 43.8208 78.5407 43.8208C77.5916 43.8208 76.8797 44.5327 76.8797 45.4818C76.8797 46.3123 77.5916 47.1428 78.5407 47.1428Z" fill="#D8DBEA"/>
<path d="M95.6259 47.1428C96.5751 47.1428 97.2869 46.431 97.2869 45.4818C97.2869 44.5327 96.5751 43.8208 95.6259 43.8208C94.6768 43.8208 93.9649 44.5327 93.9649 45.4818C93.9649 46.3123 94.6768 47.1428 95.6259 47.1428Z" fill="#D8DBEA"/>
<path d="M70.0008 72.7698C70.95 72.7698 71.6618 72.0579 71.6618 71.1088C71.6618 70.1596 70.95 69.4478 70.0008 69.4478C69.0516 69.4478 68.3398 70.1596 68.3398 71.1088C68.3398 71.9393 69.0516 72.7698 70.0008 72.7698Z" fill="#D8DBEA"/>
<path d="M70.0002 55.6853C70.9493 55.6853 71.6612 54.9735 71.6612 54.0243C71.6612 53.0751 70.9493 52.3633 70.0002 52.3633C69.051 52.3633 68.3392 53.0751 68.3392 54.0243C68.3392 54.8548 69.051 55.6853 70.0002 55.6853Z" fill="#D8DBEA"/>
<path d="M104.17 38.6004C105.12 38.6004 105.831 37.8885 105.831 36.9393C105.831 35.9902 105.12 35.2783 104.17 35.2783C103.221 35.2783 102.509 35.9902 102.509 36.9393C102.509 37.7698 103.221 38.6004 104.17 38.6004Z" fill="#D8DBEA"/>
<path d="M87.0854 38.6004C88.0345 38.6004 88.7464 37.8885 88.7464 36.9393C88.7464 35.9902 88.0345 35.2783 87.0854 35.2783C86.1362 35.2783 85.4244 35.9902 85.4244 36.9393C85.4244 37.7698 86.1362 38.6004 87.0854 38.6004Z" fill="#D8DBEA"/>
<path d="M69.9995 38.6008C70.9487 38.6008 71.6605 37.889 71.6605 36.9398C71.6605 35.9907 70.9487 35.2788 69.9995 35.2788C69.0504 35.2788 68.3385 35.9907 68.3385 36.9398C68.3385 37.7703 69.0504 38.6008 69.9995 38.6008Z" fill="#D8DBEA"/>
<path d="M104.167 106.94C105.117 106.94 105.828 106.228 105.828 105.279C105.828 104.33 105.117 103.618 104.167 103.618C103.218 103.618 102.506 104.33 102.506 105.279C102.506 106.109 103.218 106.94 104.167 106.94Z" fill="#D8DBEA"/>
<path d="M87.0822 106.94C88.0313 106.94 88.7432 106.228 88.7432 105.279C88.7432 104.33 88.0313 103.618 87.0822 103.618C86.133 103.618 85.4211 104.33 85.4211 105.279C85.4211 106.109 86.133 106.94 87.0822 106.94Z" fill="#D8DBEA"/>
<path d="M104.167 89.8548C105.117 89.8548 105.828 89.1429 105.828 88.1937C105.828 87.2446 105.117 86.5327 104.167 86.5327C103.218 86.5327 102.506 87.2446 102.506 88.1937C102.506 89.0242 103.218 89.8548 104.167 89.8548Z" fill="#D8DBEA"/>
<path d="M87.0822 89.8548C88.0313 89.8548 88.7432 89.1429 88.7432 88.1937C88.7432 87.2446 88.0313 86.5327 87.0822 86.5327C86.133 86.5327 85.4211 87.2446 85.4211 88.1937C85.4211 89.0242 86.133 89.8548 87.0822 89.8548Z" fill="#D8DBEA"/>
<path d="M78.5407 98.3972C79.4899 98.3972 80.2017 97.6854 80.2017 96.7362C80.2017 95.7871 79.4899 95.0752 78.5407 95.0752C77.5916 95.0752 76.8797 95.7871 76.8797 96.7362C76.8797 97.5667 77.5916 98.3972 78.5407 98.3972Z" fill="#D8DBEA"/>
<path d="M95.6259 98.3972C96.5751 98.3972 97.2869 97.6854 97.2869 96.7362C97.2869 95.7871 96.5751 95.0752 95.6259 95.0752C94.6768 95.0752 93.9649 95.7871 93.9649 96.7362C93.9649 97.5667 94.6768 98.3972 95.6259 98.3972Z" fill="#D8DBEA"/>
<path d="M78.5407 81.3128C79.4899 81.3128 80.2017 80.6009 80.2017 79.6517C80.2017 78.7026 79.4899 77.9907 78.5407 77.9907C77.5916 77.9907 76.8797 78.7026 76.8797 79.6517C76.8797 80.4822 77.5916 81.3128 78.5407 81.3128Z" fill="#D8DBEA"/>
<path d="M95.6259 81.3128C96.5751 81.3128 97.2869 80.6009 97.2869 79.6517C97.2869 78.7026 96.5751 77.9907 95.6259 77.9907C94.6768 77.9907 93.9649 78.7026 93.9649 79.6517C93.9649 80.4822 94.6768 81.3128 95.6259 81.3128Z" fill="#D8DBEA"/>
<path d="M70.0008 106.939C70.95 106.939 71.6618 106.227 71.6618 105.278C71.6618 104.329 70.95 103.617 70.0008 103.617C69.0516 103.617 68.3398 104.329 68.3398 105.278C68.3398 106.109 69.0516 106.939 70.0008 106.939Z" fill="#D8DBEA"/>
<path d="M70.0002 89.8548C70.9493 89.8548 71.6612 89.1429 71.6612 88.1937C71.6612 87.2446 70.9493 86.5327 70.0002 86.5327C69.051 86.5327 68.3392 87.2446 68.3392 88.1937C68.3392 89.0242 69.051 89.8548 70.0002 89.8548Z" fill="#D8DBEA"/>
<path d="M104.17 72.7703C105.12 72.7703 105.831 72.0584 105.831 71.1093C105.831 70.1601 105.12 69.4482 104.17 69.4482C103.221 69.4482 102.509 70.1601 102.509 71.1093C102.509 71.9398 103.221 72.7703 104.17 72.7703Z" fill="#D8DBEA"/>
<path d="M87.0854 72.7703C88.0345 72.7703 88.7464 72.0584 88.7464 71.1093C88.7464 70.1601 88.0345 69.4482 87.0854 69.4482C86.1362 69.4482 85.4244 70.1601 85.4244 71.1093C85.4244 71.9398 86.1362 72.7703 87.0854 72.7703Z" fill="#D8DBEA"/>
<path d="M69.9995 72.7703C70.9487 72.7703 71.6605 72.0584 71.6605 71.1093C71.6605 70.1601 70.9487 69.4482 69.9995 69.4482C69.0504 69.4482 68.3385 70.1601 68.3385 71.1093C68.3385 71.9398 69.0504 72.7703 69.9995 72.7703Z" fill="#D8DBEA"/>
<path d="M104.167 141.11C105.117 141.11 105.828 140.398 105.828 139.449C105.828 138.499 105.117 137.788 104.167 137.788C103.218 137.788 102.506 138.499 102.506 139.449C102.506 140.398 103.218 141.11 104.167 141.11Z" fill="#D8DBEA"/>
<path d="M87.0822 141.11C88.0313 141.11 88.7432 140.398 88.7432 139.449C88.7432 138.499 88.0313 137.788 87.0822 137.788C86.133 137.788 85.4211 138.499 85.4211 139.449C85.4211 140.398 86.133 141.11 87.0822 141.11Z" fill="#D8DBEA"/>
<path d="M104.167 124.025C105.117 124.025 105.828 123.313 105.828 122.364C105.828 121.415 105.117 120.703 104.167 120.703C103.218 120.703 102.506 121.415 102.506 122.364C102.506 123.194 103.218 124.025 104.167 124.025Z" fill="#D8DBEA"/>
<path d="M87.0822 124.025C88.0313 124.025 88.7432 123.313 88.7432 122.364C88.7432 121.415 88.0313 120.703 87.0822 120.703C86.133 120.703 85.4211 121.415 85.4211 122.364C85.4211 123.194 86.133 124.025 87.0822 124.025Z" fill="#D8DBEA"/>
<path d="M78.5407 132.567C79.4899 132.567 80.2017 131.855 80.2017 130.906C80.2017 129.956 79.4899 129.245 78.5407 129.245C77.5916 129.245 76.8797 129.956 76.8797 130.906C76.8797 131.736 77.5916 132.567 78.5407 132.567Z" fill="#D8DBEA"/>
<path d="M95.6259 132.567C96.5751 132.567 97.2869 131.855 97.2869 130.906C97.2869 129.956 96.5751 129.245 95.6259 129.245C94.6768 129.245 93.9649 129.956 93.9649 130.906C93.9649 131.736 94.6768 132.567 95.6259 132.567Z" fill="#D8DBEA"/>
<path d="M78.5407 115.482C79.4899 115.482 80.2017 114.77 80.2017 113.821C80.2017 112.872 79.4899 112.16 78.5407 112.16C77.5916 112.16 76.8797 112.872 76.8797 113.821C76.8797 114.652 77.5916 115.482 78.5407 115.482Z" fill="#D8DBEA"/>
<path d="M95.6259 115.482C96.5751 115.482 97.2869 114.77 97.2869 113.821C97.2869 112.872 96.5751 112.16 95.6259 112.16C94.6768 112.16 93.9649 112.872 93.9649 113.821C93.9649 114.652 94.6768 115.482 95.6259 115.482Z" fill="#D8DBEA"/>
<path d="M70.0008 141.109C70.95 141.109 71.6618 140.397 71.6618 139.448C71.6618 138.499 70.95 137.787 70.0008 137.787C69.0516 137.787 68.3398 138.499 68.3398 139.448C68.3398 140.397 69.0516 141.109 70.0008 141.109Z" fill="#D8DBEA"/>
<path d="M70.0002 124.025C70.9493 124.025 71.6612 123.313 71.6612 122.364C71.6612 121.415 70.9493 120.703 70.0002 120.703C69.051 120.703 68.3392 121.415 68.3392 122.364C68.3392 123.194 69.051 124.025 70.0002 124.025Z" fill="#D8DBEA"/>
<path d="M104.17 106.94C105.12 106.94 105.831 106.228 105.831 105.279C105.831 104.33 105.12 103.618 104.17 103.618C103.221 103.618 102.509 104.33 102.509 105.279C102.509 106.11 103.221 106.94 104.17 106.94Z" fill="#D8DBEA"/>
<path d="M87.0854 106.94C88.0345 106.94 88.7464 106.228 88.7464 105.279C88.7464 104.33 88.0345 103.618 87.0854 103.618C86.1362 103.618 85.4244 104.33 85.4244 105.279C85.4244 106.109 86.1362 106.94 87.0854 106.94Z" fill="#D8DBEA"/>
<path d="M69.9995 106.94C70.9487 106.94 71.6605 106.228 71.6605 105.279C71.6605 104.33 70.9487 103.618 69.9995 103.618C69.0504 103.618 68.3385 104.33 68.3385 105.279C68.3385 106.109 69.0504 106.94 69.9995 106.94Z" fill="#D8DBEA"/>
<path d="M70.001 38.6008C70.9501 38.6008 71.662 37.889 71.662 36.9398C71.662 35.9907 70.9501 35.2788 70.001 35.2788C69.0518 35.2788 68.34 35.9907 68.34 36.9398C68.34 37.7703 69.0518 38.6008 70.001 38.6008Z" fill="#D8DBEA"/>
<path d="M52.9158 38.6008C53.8649 38.6008 54.5768 37.889 54.5768 36.9398C54.5768 35.9907 53.8649 35.2788 52.9158 35.2788C51.9666 35.2788 51.2548 35.9907 51.2548 36.9398C51.2548 37.7703 51.9666 38.6008 52.9158 38.6008Z" fill="#D8DBEA"/>
<path d="M70.001 21.5159C70.9501 21.5159 71.662 20.804 71.662 19.8549C71.662 18.9057 70.9501 18.1938 70.001 18.1938C69.0518 18.1938 68.34 18.9057 68.34 19.8549C68.34 20.804 69.0518 21.5159 70.001 21.5159Z" fill="#D8DBEA"/>
<path d="M52.9158 21.5159C53.8649 21.5159 54.5768 20.804 54.5768 19.8549C54.5768 18.9057 53.8649 18.1938 52.9158 18.1938C51.9666 18.1938 51.2548 18.9057 51.2548 19.8549C51.2548 20.804 51.9666 21.5159 52.9158 21.5159Z" fill="#D8DBEA"/>
<path d="M44.3743 30.0584C45.3235 30.0584 46.0354 29.3465 46.0354 28.3973C46.0354 27.4482 45.3235 26.7363 44.3743 26.7363C43.4252 26.7363 42.7133 27.4482 42.7133 28.3973C42.7133 29.2279 43.4252 30.0584 44.3743 30.0584Z" fill="#D8DBEA"/>
<path d="M61.4595 30.0584C62.4087 30.0584 63.1206 29.3465 63.1206 28.3973C63.1206 27.4482 62.4087 26.7363 61.4595 26.7363C60.5104 26.7363 59.7985 27.4482 59.7985 28.3973C59.7985 29.2279 60.5104 30.0584 61.4595 30.0584Z" fill="#D8DBEA"/>
<path d="M44.3734 12.9739C45.3226 12.9739 46.0344 12.262 46.0344 11.3129C46.0344 10.3637 45.3226 9.65186 44.3734 9.65186C43.4243 9.65186 42.7124 10.3637 42.7124 11.3129C42.7124 12.1434 43.4243 12.9739 44.3734 12.9739Z" fill="#D8DBEA"/>
<path d="M61.4595 12.9734C62.4087 12.9734 63.1206 12.2615 63.1206 11.3124C63.1206 10.3632 62.4087 9.65137 61.4595 9.65137C60.5104 9.65137 59.7985 10.3632 59.7985 11.3124C59.7985 12.1429 60.5104 12.9734 61.4595 12.9734Z" fill="#D8DBEA"/>
<path d="M35.8324 38.6008C36.7816 38.6008 37.4934 37.889 37.4934 36.9398C37.4934 35.9907 36.7816 35.2788 35.8324 35.2788C34.8833 35.2788 34.1714 35.9907 34.1714 36.9398C34.1714 37.7703 34.8833 38.6008 35.8324 38.6008Z" fill="#D8DBEA"/>
<path d="M35.8319 21.5159C36.7811 21.5159 37.4929 20.804 37.4929 19.8549C37.4929 18.9057 36.7811 18.1938 35.8319 18.1938C34.8828 18.1938 34.1709 18.9057 34.1709 19.8549C34.1709 20.804 34.8828 21.5159 35.8319 21.5159Z" fill="#D8DBEA"/>
<path d="M70.0021 4.4314C70.9513 4.4314 71.6632 3.71954 71.6632 2.77038C71.6632 1.82123 70.9513 0.990723 70.0021 0.990723C69.053 0.990723 68.3411 1.70259 68.3411 2.65174C68.3411 3.60089 69.053 4.4314 70.0021 4.4314Z" fill="#D8DBEA"/>
<path d="M52.9171 4.4314C53.8663 4.4314 54.5781 3.71954 54.5781 2.77038C54.5781 1.82123 53.8663 0.990723 52.9171 0.990723C51.968 0.990723 51.2561 1.70259 51.2561 2.65174C51.2561 3.60089 51.968 4.4314 52.9171 4.4314Z" fill="#D8DBEA"/>
<path d="M35.8315 4.4314C36.7806 4.4314 37.4925 3.71954 37.4925 2.77038C37.4925 1.82123 36.7806 0.990723 35.8315 0.990723C34.8823 0.990723 34.1705 1.70259 34.1705 2.65174C34.1705 3.60089 34.8823 4.4314 35.8315 4.4314Z" fill="#D8DBEA"/>
<path d="M70.001 72.7703C70.9501 72.7703 71.662 72.0584 71.662 71.1093C71.662 70.1601 70.9501 69.4482 70.001 69.4482C69.0518 69.4482 68.34 70.1601 68.34 71.1093C68.34 71.9398 69.0518 72.7703 70.001 72.7703Z" fill="#D8DBEA"/>
<path d="M52.9158 72.7703C53.8649 72.7703 54.5768 72.0584 54.5768 71.1093C54.5768 70.1601 53.8649 69.4482 52.9158 69.4482C51.9666 69.4482 51.2548 70.1601 51.2548 71.1093C51.2548 71.9398 51.9666 72.7703 52.9158 72.7703Z" fill="#D8DBEA"/>
<path d="M70.001 55.6853C70.9501 55.6853 71.662 54.9735 71.662 54.0243C71.662 53.0751 70.9501 52.3633 70.001 52.3633C69.0518 52.3633 68.34 53.0751 68.34 54.0243C68.34 54.8548 69.0518 55.6853 70.001 55.6853Z" fill="#D8DBEA"/>
<path d="M52.9158 55.6853C53.8649 55.6853 54.5768 54.9735 54.5768 54.0243C54.5768 53.0751 53.8649 52.3633 52.9158 52.3633C51.9666 52.3633 51.2548 53.0751 51.2548 54.0243C51.2548 54.8548 51.9666 55.6853 52.9158 55.6853Z" fill="#D8DBEA"/>
<path d="M44.3743 64.2273C45.3235 64.2273 46.0354 63.5154 46.0354 62.5663C46.0354 61.6171 45.3235 60.9053 44.3743 60.9053C43.4252 60.9053 42.7133 61.6171 42.7133 62.5663C42.7133 63.3968 43.4252 64.2273 44.3743 64.2273Z" fill="#D8DBEA"/>
<path d="M61.4595 64.2273C62.4087 64.2273 63.1206 63.5154 63.1206 62.5663C63.1206 61.6171 62.4087 60.9053 61.4595 60.9053C60.5104 60.9053 59.7985 61.6171 59.7985 62.5663C59.7985 63.3968 60.5104 64.2273 61.4595 64.2273Z" fill="#D8DBEA"/>
<path d="M44.3734 47.1428C45.3226 47.1428 46.0344 46.431 46.0344 45.4818C46.0344 44.5327 45.3226 43.8208 44.3734 43.8208C43.4243 43.8208 42.7124 44.5327 42.7124 45.4818C42.7124 46.3123 43.4243 47.1428 44.3734 47.1428Z" fill="#D8DBEA"/>
<path d="M61.4595 47.1428C62.4087 47.1428 63.1206 46.431 63.1206 45.4818C63.1206 44.5327 62.4087 43.8208 61.4595 43.8208C60.5104 43.8208 59.7985 44.5327 59.7985 45.4818C59.7985 46.3123 60.5104 47.1428 61.4595 47.1428Z" fill="#D8DBEA"/>
<path d="M35.8324 72.7698C36.7816 72.7698 37.4934 72.0579 37.4934 71.1088C37.4934 70.1596 36.7816 69.4478 35.8324 69.4478C34.8833 69.4478 34.1714 70.1596 34.1714 71.1088C34.1714 71.9393 34.8833 72.7698 35.8324 72.7698Z" fill="#D8DBEA"/>
<path d="M35.8319 55.6853C36.7811 55.6853 37.4929 54.9735 37.4929 54.0243C37.4929 53.0751 36.7811 52.3633 35.8319 52.3633C34.8828 52.3633 34.1709 53.0751 34.1709 54.0243C34.1709 54.8548 34.8828 55.6853 35.8319 55.6853Z" fill="#D8DBEA"/>
<path d="M70.0021 38.6004C70.9513 38.6004 71.6632 37.8885 71.6632 36.9393C71.6632 35.9902 70.9513 35.2783 70.0021 35.2783C69.053 35.2783 68.3411 35.9902 68.3411 36.9393C68.3411 37.7698 69.053 38.6004 70.0021 38.6004Z" fill="#D8DBEA"/>
<path d="M52.9171 38.6004C53.8663 38.6004 54.5781 37.8885 54.5781 36.9393C54.5781 35.9902 53.8663 35.2783 52.9171 35.2783C51.968 35.2783 51.2561 35.9902 51.2561 36.9393C51.2561 37.7698 51.968 38.6004 52.9171 38.6004Z" fill="#D8DBEA"/>
<path d="M35.8315 38.6008C36.7806 38.6008 37.4925 37.889 37.4925 36.9398C37.4925 35.9907 36.7806 35.2788 35.8315 35.2788C34.8823 35.2788 34.1705 35.9907 34.1705 36.9398C34.1705 37.7703 34.8823 38.6008 35.8315 38.6008Z" fill="#D8DBEA"/>
<path d="M70.001 106.94C70.9501 106.94 71.662 106.228 71.662 105.279C71.662 104.33 70.9501 103.618 70.001 103.618C69.0518 103.618 68.34 104.33 68.34 105.279C68.34 106.109 69.0518 106.94 70.001 106.94Z" fill="#D8DBEA"/>
<path d="M52.9158 106.94C53.8649 106.94 54.5768 106.228 54.5768 105.279C54.5768 104.33 53.8649 103.618 52.9158 103.618C51.9666 103.618 51.2548 104.33 51.2548 105.279C51.2548 106.109 51.9666 106.94 52.9158 106.94Z" fill="#D8DBEA"/>
<path d="M70.001 89.8548C70.9501 89.8548 71.662 89.1429 71.662 88.1937C71.662 87.2446 70.9501 86.5327 70.001 86.5327C69.0518 86.5327 68.34 87.2446 68.34 88.1937C68.34 89.0242 69.0518 89.8548 70.001 89.8548Z" fill="#D8DBEA"/>
<path d="M52.9158 89.8548C53.8649 89.8548 54.5768 89.1429 54.5768 88.1937C54.5768 87.2446 53.8649 86.5327 52.9158 86.5327C51.9666 86.5327 51.2548 87.2446 51.2548 88.1937C51.2548 89.0242 51.9666 89.8548 52.9158 89.8548Z" fill="#D8DBEA"/>
<path d="M44.3743 98.3972C45.3234 98.3972 46.0353 97.6854 46.0353 96.7362C46.0353 95.7871 45.3234 95.0752 44.3743 95.0752C43.4251 95.0752 42.7133 95.7871 42.7133 96.7362C42.7133 97.5667 43.4251 98.3972 44.3743 98.3972Z" fill="#D8DBEA"/>
<path d="M61.4595 98.3972C62.4087 98.3972 63.1206 97.6854 63.1206 96.7362C63.1206 95.7871 62.4087 95.0752 61.4595 95.0752C60.5104 95.0752 59.7985 95.7871 59.7985 96.7362C59.7985 97.5667 60.5104 98.3972 61.4595 98.3972Z" fill="#D8DBEA"/>
<path d="M44.3734 81.3128C45.3226 81.3128 46.0344 80.6009 46.0344 79.6517C46.0344 78.7026 45.3226 77.9907 44.3734 77.9907C43.4243 77.9907 42.7124 78.7026 42.7124 79.6517C42.7124 80.4822 43.4243 81.3128 44.3734 81.3128Z" fill="#D8DBEA"/>
<path d="M61.4595 81.3128C62.4087 81.3128 63.1206 80.6009 63.1206 79.6517C63.1206 78.7026 62.4087 77.9907 61.4595 77.9907C60.5104 77.9907 59.7985 78.7026 59.7985 79.6517C59.7985 80.4822 60.5104 81.3128 61.4595 81.3128Z" fill="#D8DBEA"/>
<path d="M35.8324 106.939C36.7816 106.939 37.4934 106.227 37.4934 105.278C37.4934 104.329 36.7816 103.617 35.8324 103.617C34.8833 103.617 34.1714 104.329 34.1714 105.278C34.1714 106.109 34.8833 106.939 35.8324 106.939Z" fill="#D8DBEA"/>
<path d="M35.8319 89.8548C36.7811 89.8548 37.4929 89.1429 37.4929 88.1937C37.4929 87.2446 36.7811 86.5327 35.8319 86.5327C34.8828 86.5327 34.1709 87.2446 34.1709 88.1937C34.1709 89.0242 34.8828 89.8548 35.8319 89.8548Z" fill="#D8DBEA"/>
<path d="M70.0021 72.7703C70.9513 72.7703 71.6632 72.0584 71.6632 71.1093C71.6632 70.1601 70.9513 69.4482 70.0021 69.4482C69.053 69.4482 68.3411 70.1601 68.3411 71.1093C68.3411 71.9398 69.053 72.7703 70.0021 72.7703Z" fill="#D8DBEA"/>
<path d="M52.9171 72.7703C53.8663 72.7703 54.5781 72.0584 54.5781 71.1093C54.5781 70.1601 53.8663 69.4482 52.9171 69.4482C51.968 69.4482 51.2561 70.1601 51.2561 71.1093C51.2561 71.9398 51.968 72.7703 52.9171 72.7703Z" fill="#D8DBEA"/>
<path d="M35.8315 72.7703C36.7806 72.7703 37.4925 72.0584 37.4925 71.1093C37.4925 70.1601 36.7806 69.4482 35.8315 69.4482C34.8823 69.4482 34.1705 70.1601 34.1705 71.1093C34.1705 71.9398 34.8823 72.7703 35.8315 72.7703Z" fill="#D8DBEA"/>
<path d="M70.001 141.11C70.9501 141.11 71.662 140.398 71.662 139.449C71.662 138.499 70.9501 137.788 70.001 137.788C69.0518 137.788 68.34 138.499 68.34 139.449C68.34 140.398 69.0518 141.11 70.001 141.11Z" fill="#D8DBEA"/>
<path d="M52.9158 141.11C53.8649 141.11 54.5768 140.398 54.5768 139.449C54.5768 138.499 53.8649 137.788 52.9158 137.788C51.9666 137.788 51.2548 138.499 51.2548 139.449C51.2548 140.398 51.9666 141.11 52.9158 141.11Z" fill="#D8DBEA"/>
<path d="M70.001 124.025C70.9501 124.025 71.662 123.313 71.662 122.364C71.662 121.415 70.9501 120.703 70.001 120.703C69.0518 120.703 68.34 121.415 68.34 122.364C68.34 123.194 69.0518 124.025 70.001 124.025Z" fill="#D8DBEA"/>
<path d="M52.9158 124.025C53.8649 124.025 54.5768 123.313 54.5768 122.364C54.5768 121.415 53.8649 120.703 52.9158 120.703C51.9666 120.703 51.2548 121.415 51.2548 122.364C51.2548 123.194 51.9666 124.025 52.9158 124.025Z" fill="#D8DBEA"/>
<path d="M44.3743 132.567C45.3234 132.567 46.0353 131.855 46.0353 130.906C46.0353 129.956 45.3234 129.245 44.3743 129.245C43.4251 129.245 42.7133 129.956 42.7133 130.906C42.7133 131.736 43.4251 132.567 44.3743 132.567Z" fill="#D8DBEA"/>
<path d="M61.4595 132.567C62.4087 132.567 63.1206 131.855 63.1206 130.906C63.1206 129.956 62.4087 129.245 61.4595 129.245C60.5104 129.245 59.7985 129.956 59.7985 130.906C59.7985 131.736 60.5104 132.567 61.4595 132.567Z" fill="#D8DBEA"/>
<path d="M44.3734 115.482C45.3226 115.482 46.0344 114.77 46.0344 113.821C46.0344 112.872 45.3226 112.16 44.3734 112.16C43.4243 112.16 42.7124 112.872 42.7124 113.821C42.7124 114.652 43.4243 115.482 44.3734 115.482Z" fill="#D8DBEA"/>
<path d="M61.4595 115.482C62.4087 115.482 63.1206 114.77 63.1206 113.821C63.1206 112.872 62.4087 112.16 61.4595 112.16C60.5104 112.16 59.7985 112.872 59.7985 113.821C59.7985 114.652 60.5104 115.482 61.4595 115.482Z" fill="#D8DBEA"/>
<path d="M35.8324 141.109C36.7816 141.109 37.4934 140.397 37.4934 139.448C37.4934 138.499 36.7816 137.787 35.8324 137.787C34.8833 137.787 34.1714 138.499 34.1714 139.448C34.1714 140.397 34.8833 141.109 35.8324 141.109Z" fill="#D8DBEA"/>
<path d="M35.8319 124.025C36.7811 124.025 37.4929 123.313 37.4929 122.364C37.4929 121.415 36.7811 120.703 35.8319 120.703C34.8828 120.703 34.1709 121.415 34.1709 122.364C34.1709 123.194 34.8828 124.025 35.8319 124.025Z" fill="#D8DBEA"/>
<path d="M70.0021 106.94C70.9513 106.94 71.6632 106.228 71.6632 105.279C71.6632 104.33 70.9513 103.618 70.0021 103.618C69.053 103.618 68.3411 104.33 68.3411 105.279C68.3411 106.11 69.053 106.94 70.0021 106.94Z" fill="#D8DBEA"/>
<path d="M52.9171 106.94C53.8663 106.94 54.5781 106.228 54.5781 105.279C54.5781 104.33 53.8663 103.618 52.9171 103.618C51.968 103.618 51.2561 104.33 51.2561 105.279C51.2561 106.109 51.968 106.94 52.9171 106.94Z" fill="#D8DBEA"/>
<path d="M35.8315 106.94C36.7806 106.94 37.4925 106.228 37.4925 105.279C37.4925 104.33 36.7806 103.618 35.8315 103.618C34.8823 103.618 34.1705 104.33 34.1705 105.279C34.1705 106.109 34.8823 106.94 35.8315 106.94Z" fill="#D8DBEA"/>
<path d="M35.8295 38.6008C36.7787 38.6008 37.4906 37.889 37.4906 36.9398C37.4906 35.9907 36.7787 35.2788 35.8295 35.2788C34.8804 35.2788 34.1685 35.9907 34.1685 36.9398C34.1685 37.7703 34.8804 38.6008 35.8295 38.6008Z" fill="#D8DBEA"/>
<path d="M18.7443 38.6008C19.6935 38.6008 20.4053 37.889 20.4053 36.9398C20.4053 35.9907 19.6935 35.2788 18.7443 35.2788C17.7952 35.2788 17.0833 35.9907 17.0833 36.9398C17.0833 37.7703 17.7952 38.6008 18.7443 38.6008Z" fill="#D8DBEA"/>
<path d="M35.8295 21.5159C36.7787 21.5159 37.4906 20.804 37.4906 19.8549C37.4906 18.9057 36.7787 18.1938 35.8295 18.1938C34.8804 18.1938 34.1685 18.9057 34.1685 19.8549C34.1685 20.804 34.8804 21.5159 35.8295 21.5159Z" fill="#D8DBEA"/>
<path d="M18.7443 21.5159C19.6935 21.5159 20.4053 20.804 20.4053 19.8549C20.4053 18.9057 19.6935 18.1938 18.7443 18.1938C17.7952 18.1938 17.0833 18.9057 17.0833 19.8549C17.0833 20.804 17.7952 21.5159 18.7443 21.5159Z" fill="#D8DBEA"/>
<path d="M10.2029 30.0584C11.152 30.0584 11.8639 29.3465 11.8639 28.3973C11.8639 27.4482 11.152 26.7363 10.2029 26.7363C9.25374 26.7363 8.54187 27.4482 8.54187 28.3973C8.54187 29.2279 9.25374 30.0584 10.2029 30.0584Z" fill="#D8DBEA"/>
<path d="M27.2881 30.0584C28.2372 30.0584 28.9491 29.3465 28.9491 28.3973C28.9491 27.4482 28.2372 26.7363 27.2881 26.7363C26.3389 26.7363 25.6271 27.4482 25.6271 28.3973C25.6271 29.2279 26.3389 30.0584 27.2881 30.0584Z" fill="#D8DBEA"/>
<path d="M10.2025 12.9739C11.1516 12.9739 11.8635 12.262 11.8635 11.3129C11.8635 10.3637 11.1516 9.65186 10.2025 9.65186C9.25331 9.65186 8.54144 10.3637 8.54144 11.3129C8.54144 12.1434 9.25331 12.9739 10.2025 12.9739Z" fill="#D8DBEA"/>
<path d="M27.2881 12.9739C28.2372 12.9739 28.9491 12.262 28.9491 11.3129C28.9491 10.3637 28.2372 9.65186 27.2881 9.65186C26.3389 9.65186 25.6271 10.3637 25.6271 11.3129C25.6271 12.1434 26.3389 12.9739 27.2881 12.9739Z" fill="#D8DBEA"/>
<path d="M1.66102 38.6008C2.61017 38.6008 3.32203 37.889 3.32203 36.9398C3.32203 35.9907 2.61017 35.2788 1.66102 35.2788C0.711864 35.2788 0 35.9907 0 36.9398C0 37.7703 0.711864 38.6008 1.66102 38.6008Z" fill="#D8DBEA"/>
<path d="M1.66102 21.5161C2.61017 21.5161 3.32203 20.8043 3.32203 19.8551C3.32203 18.906 2.61017 18.1941 1.66102 18.1941C0.711864 18.0754 0 18.7873 0 19.7365C0 20.6856 0.711864 21.5161 1.66102 21.5161Z" fill="#D8DBEA"/>
<path d="M35.8307 4.4314C36.7798 4.4314 37.4917 3.71954 37.4917 2.77038C37.4917 1.82123 36.7798 0.990723 35.8307 0.990723C34.8815 0.990723 34.1697 1.70259 34.1697 2.65174C34.1697 3.60089 34.8815 4.4314 35.8307 4.4314Z" fill="#D8DBEA"/>
<path d="M18.7462 4.4314C19.6954 4.4314 20.4072 3.71954 20.4072 2.77038C20.4072 1.82123 19.6954 0.990723 18.7462 0.990723C17.7971 0.990723 17.0852 1.70259 17.0852 2.65174C17.0852 3.60089 17.7971 4.4314 18.7462 4.4314Z" fill="#D8DBEA"/>
<path d="M1.66102 4.43189C2.61017 4.43189 3.32203 3.72002 3.32203 2.77087C3.32203 1.82172 2.61017 0.991211 1.66102 0.991211C0.711864 0.991211 0 1.70308 0 2.65223C0 3.60138 0.711864 4.43189 1.66102 4.43189Z" fill="#D8DBEA"/>
<path d="M35.8295 72.7703C36.7787 72.7703 37.4906 72.0584 37.4906 71.1093C37.4906 70.1601 36.7787 69.4482 35.8295 69.4482C34.8804 69.4482 34.1685 70.1601 34.1685 71.1093C34.1685 71.9398 34.8804 72.7703 35.8295 72.7703Z" fill="#D8DBEA"/>
<path d="M18.7443 72.7703C19.6935 72.7703 20.4053 72.0584 20.4053 71.1093C20.4053 70.1601 19.6935 69.4482 18.7443 69.4482C17.7952 69.4482 17.0833 70.1601 17.0833 71.1093C17.0833 71.9398 17.7952 72.7703 18.7443 72.7703Z" fill="#D8DBEA"/>
<path d="M35.8295 55.6853C36.7787 55.6853 37.4906 54.9735 37.4906 54.0243C37.4906 53.0751 36.7787 52.3633 35.8295 52.3633C34.8804 52.3633 34.1685 53.0751 34.1685 54.0243C34.1685 54.8548 34.8804 55.6853 35.8295 55.6853Z" fill="#D8DBEA"/>
<path d="M18.7443 55.6853C19.6935 55.6853 20.4053 54.9735 20.4053 54.0243C20.4053 53.0751 19.6935 52.3633 18.7443 52.3633C17.7952 52.3633 17.0833 53.0751 17.0833 54.0243C17.0833 54.8548 17.7952 55.6853 18.7443 55.6853Z" fill="#D8DBEA"/>
<path d="M10.2029 64.2273C11.152 64.2273 11.8639 63.5154 11.8639 62.5663C11.8639 61.6171 11.152 60.9053 10.2029 60.9053C9.25374 60.9053 8.54187 61.6171 8.54187 62.5663C8.54187 63.3968 9.25374 64.2273 10.2029 64.2273Z" fill="#D8DBEA"/>
<path d="M27.2881 64.2273C28.2372 64.2273 28.9491 63.5154 28.9491 62.5663C28.9491 61.6171 28.2372 60.9053 27.2881 60.9053C26.3389 60.9053 25.6271 61.6171 25.6271 62.5663C25.6271 63.3968 26.3389 64.2273 27.2881 64.2273Z" fill="#D8DBEA"/>
<path d="M10.2025 47.1428C11.1516 47.1428 11.8635 46.431 11.8635 45.4818C11.8635 44.5327 11.1516 43.8208 10.2025 43.8208C9.25331 43.8208 8.54144 44.5327 8.54144 45.4818C8.54144 46.3123 9.25331 47.1428 10.2025 47.1428Z" fill="#D8DBEA"/>
<path d="M27.2881 47.1428C28.2372 47.1428 28.9491 46.431 28.9491 45.4818C28.9491 44.5327 28.2372 43.8208 27.2881 43.8208C26.3389 43.8208 25.6271 44.5327 25.6271 45.4818C25.6271 46.3123 26.3389 47.1428 27.2881 47.1428Z" fill="#D8DBEA"/>
<path d="M1.66102 72.77C2.61017 72.77 3.32203 72.0582 3.32203 71.109C3.32203 70.1599 2.61017 69.448 1.66102 69.448C0.711864 69.3294 0 70.0412 0 70.9904C0 71.9395 0.711864 72.77 1.66102 72.77Z" fill="#D8DBEA"/>
<path d="M1.66102 55.6853C2.61017 55.6853 3.32203 54.9735 3.32203 54.0243C3.32203 53.0751 2.61017 52.3633 1.66102 52.3633C0.711864 52.3633 0 53.0751 0 54.0243C0 54.8548 0.711864 55.6853 1.66102 55.6853Z" fill="#D8DBEA"/>
<path d="M35.8307 38.6004C36.7798 38.6004 37.4917 37.8885 37.4917 36.9393C37.4917 35.9902 36.7798 35.2783 35.8307 35.2783C34.8815 35.2783 34.1697 35.9902 34.1697 36.9393C34.1697 37.7698 34.8815 38.6004 35.8307 38.6004Z" fill="#D8DBEA"/>
<path d="M18.7462 38.6004C19.6954 38.6004 20.4072 37.8885 20.4072 36.9393C20.4072 35.9902 19.6954 35.2783 18.7462 35.2783C17.7971 35.2783 17.0852 35.9902 17.0852 36.9393C17.0852 37.7698 17.7971 38.6004 18.7462 38.6004Z" fill="#D8DBEA"/>
<path d="M1.66102 38.6008C2.61017 38.6008 3.32203 37.889 3.32203 36.9398C3.32203 35.9907 2.61017 35.2788 1.66102 35.2788C0.711864 35.2788 0 35.9907 0 36.9398C0 37.7703 0.711864 38.6008 1.66102 38.6008Z" fill="#D8DBEA"/>
<path d="M35.8295 106.94C36.7787 106.94 37.4906 106.228 37.4906 105.279C37.4906 104.33 36.7787 103.618 35.8295 103.618C34.8804 103.618 34.1685 104.33 34.1685 105.279C34.1685 106.109 34.8804 106.94 35.8295 106.94Z" fill="#D8DBEA"/>
<path d="M18.7443 106.94C19.6935 106.94 20.4053 106.228 20.4053 105.279C20.4053 104.33 19.6935 103.618 18.7443 103.618C17.7952 103.618 17.0833 104.33 17.0833 105.279C17.0833 106.109 17.7952 106.94 18.7443 106.94Z" fill="#D8DBEA"/>
<path d="M35.8295 89.8548C36.7787 89.8548 37.4906 89.1429 37.4906 88.1937C37.4906 87.2446 36.7787 86.5327 35.8295 86.5327C34.8804 86.5327 34.1685 87.2446 34.1685 88.1937C34.1685 89.0242 34.8804 89.8548 35.8295 89.8548Z" fill="#D8DBEA"/>
<path d="M18.7443 89.8548C19.6935 89.8548 20.4053 89.1429 20.4053 88.1937C20.4053 87.2446 19.6935 86.5327 18.7443 86.5327C17.7952 86.5327 17.0833 87.2446 17.0833 88.1937C17.0833 89.0242 17.7952 89.8548 18.7443 89.8548Z" fill="#D8DBEA"/>
<path d="M10.2029 98.3972C11.152 98.3972 11.8639 97.6854 11.8639 96.7362C11.8639 95.7871 11.152 95.0752 10.2029 95.0752C9.25374 95.0752 8.54187 95.7871 8.54187 96.7362C8.54187 97.5667 9.25374 98.3972 10.2029 98.3972Z" fill="#D8DBEA"/>
<path d="M27.2881 98.3972C28.2372 98.3972 28.9491 97.6854 28.9491 96.7362C28.9491 95.7871 28.2372 95.0752 27.2881 95.0752C26.3389 95.0752 25.6271 95.7871 25.6271 96.7362C25.6271 97.5667 26.3389 98.3972 27.2881 98.3972Z" fill="#D8DBEA"/>
<path d="M10.2025 81.3128C11.1516 81.3128 11.8635 80.6009 11.8635 79.6517C11.8635 78.7026 11.1516 77.9907 10.2025 77.9907C9.25331 77.9907 8.54144 78.7026 8.54144 79.6517C8.54144 80.4822 9.25331 81.3128 10.2025 81.3128Z" fill="#D8DBEA"/>
<path d="M27.2881 81.3128C28.2372 81.3128 28.9491 80.6009 28.9491 79.6517C28.9491 78.7026 28.2372 77.9907 27.2881 77.9907C26.3389 77.9907 25.6271 78.7026 25.6271 79.6517C25.6271 80.4822 26.3389 81.3128 27.2881 81.3128Z" fill="#D8DBEA"/>
<path d="M1.66102 106.94C2.61017 106.94 3.32203 106.228 3.32203 105.279C3.32203 104.33 2.61017 103.618 1.66102 103.618C0.711864 103.499 0 104.211 0 105.16C0 106.109 0.711864 106.94 1.66102 106.94Z" fill="#D8DBEA"/>
<path d="M1.66102 89.855C2.61017 89.855 3.32203 89.1431 3.32203 88.194C3.32203 87.2448 2.61017 86.533 1.66102 86.533C0.711864 86.4143 0 87.1262 0 88.0753C0 89.0245 0.711864 89.855 1.66102 89.855Z" fill="#D8DBEA"/>
<path d="M35.8307 72.7703C36.7798 72.7703 37.4917 72.0584 37.4917 71.1093C37.4917 70.1601 36.7798 69.4482 35.8307 69.4482C34.8815 69.4482 34.1697 70.1601 34.1697 71.1093C34.1697 71.9398 34.8815 72.7703 35.8307 72.7703Z" fill="#D8DBEA"/>
<path d="M18.7462 72.7708C19.6954 72.7708 20.4072 72.0589 20.4072 71.1097C20.4072 70.1606 19.6954 69.4487 18.7462 69.4487C17.7971 69.4487 17.0852 70.1606 17.0852 71.1097C17.0852 71.9403 17.7971 72.7708 18.7462 72.7708Z" fill="#D8DBEA"/>
<path d="M1.66102 72.7705C2.61017 72.7705 3.32203 72.0587 3.32203 71.1095C3.32203 70.1603 2.61017 69.4485 1.66102 69.4485C0.711864 69.3298 0 70.0417 0 70.9909C0 71.94 0.711864 72.7705 1.66102 72.7705Z" fill="#D8DBEA"/>
<path d="M35.8295 141.109C36.7787 141.109 37.4906 140.397 37.4906 139.448C37.4906 138.499 36.7787 137.787 35.8295 137.787C34.8804 137.787 34.1685 138.499 34.1685 139.448C34.1685 140.397 34.8804 141.109 35.8295 141.109Z" fill="#D8DBEA"/>
<path d="M18.7443 141.109C19.6935 141.109 20.4053 140.397 20.4053 139.448C20.4053 138.499 19.6935 137.787 18.7443 137.787C17.7952 137.787 17.0833 138.499 17.0833 139.448C17.0833 140.397 17.7952 141.109 18.7443 141.109Z" fill="#D8DBEA"/>
<path d="M35.8295 124.024C36.7787 124.024 37.4906 123.312 37.4906 122.363C37.4906 121.414 36.7787 120.702 35.8295 120.702C34.8804 120.702 34.1685 121.414 34.1685 122.363C34.1685 123.194 34.8804 124.024 35.8295 124.024Z" fill="#D8DBEA"/>
<path d="M18.7443 124.024C19.6935 124.024 20.4053 123.312 20.4053 122.363C20.4053 121.414 19.6935 120.702 18.7443 120.702C17.7952 120.702 17.0833 121.414 17.0833 122.363C17.0833 123.194 17.7952 124.024 18.7443 124.024Z" fill="#D8DBEA"/>
<path d="M10.2029 132.567C11.152 132.567 11.8639 131.855 11.8639 130.906C11.8639 129.956 11.152 129.245 10.2029 129.245C9.25374 129.245 8.54187 129.956 8.54187 130.906C8.54187 131.736 9.25374 132.567 10.2029 132.567Z" fill="#D8DBEA"/>
<path d="M27.2881 132.567C28.2372 132.567 28.9491 131.855 28.9491 130.906C28.9491 129.956 28.2372 129.245 27.2881 129.245C26.3389 129.245 25.6271 129.956 25.6271 130.906C25.6271 131.736 26.3389 132.567 27.2881 132.567Z" fill="#D8DBEA"/>
<path d="M10.2025 115.482C11.1516 115.482 11.8635 114.77 11.8635 113.821C11.8635 112.872 11.1516 112.16 10.2025 112.16C9.25331 112.16 8.54144 112.872 8.54144 113.821C8.54144 114.652 9.25331 115.482 10.2025 115.482Z" fill="#D8DBEA"/>
<path d="M27.2881 115.482C28.2372 115.482 28.9491 114.77 28.9491 113.821C28.9491 112.872 28.2372 112.16 27.2881 112.16C26.3389 112.16 25.6271 112.872 25.6271 113.821C25.6271 114.652 26.3389 115.482 27.2881 115.482Z" fill="#D8DBEA"/>
<path d="M1.66102 141.109C2.61017 141.109 3.32203 140.397 3.32203 139.448C3.32203 138.499 2.61017 137.787 1.66102 137.787C0.711864 137.787 0 138.499 0 139.448C0 140.397 0.711864 141.109 1.66102 141.109Z" fill="#D8DBEA"/>
<path d="M1.66102 124.024C2.61017 124.024 3.32203 123.312 3.32203 122.363C3.32203 121.414 2.61017 120.702 1.66102 120.702C0.711864 120.702 0 121.414 0 122.363C0 123.194 0.711864 124.024 1.66102 124.024Z" fill="#D8DBEA"/>
<path d="M35.8307 106.94C36.7798 106.94 37.4917 106.228 37.4917 105.279C37.4917 104.33 36.7798 103.618 35.8307 103.618C34.8815 103.618 34.1697 104.33 34.1697 105.279C34.1697 106.109 34.8815 106.94 35.8307 106.94Z" fill="#D8DBEA"/>
<path d="M18.7462 106.94C19.6954 106.94 20.4072 106.228 20.4072 105.279C20.4072 104.33 19.6954 103.618 18.7462 103.618C17.7971 103.618 17.0852 104.33 17.0852 105.279C17.0852 106.109 17.7971 106.94 18.7462 106.94Z" fill="#D8DBEA"/>
<path d="M1.66102 106.939C2.61017 106.939 3.32203 106.228 3.32203 105.278C3.32203 104.329 2.61017 103.617 1.66102 103.617C0.711864 103.499 0 104.211 0 105.16C0 106.109 0.711864 106.939 1.66102 106.939Z" fill="#D8DBEA"/>
</svg>
