<svg width="86" height="107" viewBox="0 0 86 107" fill="none" xmlns="http://www.w3.org/2000/svg">
<g opacity="0.5">
<path d="M84.5064 74.4729C84.5737 74.6477 84.6411 74.8226 84.7085 74.9975C84.6587 76.0405 83.894 76.9868 82.7924 77.0589L64.3439 79.5915C63.2423 79.6636 62.3253 79.0423 62.3751 77.9992C62.4249 76.9562 63.1896 76.0098 64.2912 75.9378L82.7397 73.4051C83.4546 73.5018 84.2368 73.7734 84.5064 74.4729Z" fill="#FFC610"/>
<path d="M66.3057 76.2721C66.6717 77.2013 66.1292 78.3007 65.085 78.7458C64.0408 79.1909 62.777 79.0785 62.3377 77.9635L54.1521 62.1364C53.5773 61.2963 54.0466 60.011 55.2997 59.4769C56.3439 59.0318 57.6077 59.1441 58.0469 60.2592L66.3057 76.2721C66.2325 76.0862 66.3057 76.2721 66.3057 76.2721Z" fill="#FFC610"/>
<path d="M58.0766 59.8084C58.1439 59.9833 58.2113 60.1582 58.2787 60.3331C58.2289 61.3761 57.4643 62.3224 56.3627 62.3944L37.9142 64.9264C36.8126 64.9984 35.8956 64.377 35.9454 63.334C35.9952 62.2909 36.7598 61.3446 37.8614 61.2726L56.1165 58.825C56.9574 58.6625 57.807 59.109 58.0766 59.8084Z" fill="#FFC610"/>
<path d="M39.7995 61.4214C40.1657 62.3507 39.623 63.4501 38.5787 63.8952C37.5343 64.3403 36.2703 64.2279 35.8309 63.1128L27.6433 47.2844C27.2772 46.3551 27.5377 45.1588 28.7909 44.6247C29.8353 44.1797 31.0993 44.2921 31.5387 45.4072L39.7995 61.4214Z" fill="#FFC610"/>
<path d="M31.3809 45.0335C31.4483 45.2084 31.5157 45.3832 31.583 45.5581C31.5332 46.6011 30.7686 47.5475 29.667 47.6195L11.2185 50.152C10.1169 50.224 9.19991 49.6027 9.24971 48.5596C9.29952 47.5166 10.0642 46.5702 11.1658 46.4982L29.6143 43.9657C30.4551 43.8032 31.1114 44.334 31.3809 45.0335Z" fill="#FFC610"/>
<path d="M13.2911 46.5678C13.6572 47.497 13.1146 48.5965 12.0702 49.0416C11.0258 49.4867 9.76173 49.3743 9.32241 48.2592L1.13471 32.4305C0.768609 31.5013 1.02914 30.305 2.28242 29.7708C3.32681 29.3257 4.59087 29.4382 5.0302 30.5533L13.2911 46.5678Z" fill="#FFC610"/>
</g>
</svg>
