<svg width="30" height="30" viewBox="0 0 30 30" fill="none" xmlns="http://www.w3.org/2000/svg">
<path d="M27.4506 8.59216C26.4702 6.69065 25.0404 5.01156 23.316 3.73635C23.0629 3.54927 22.7062 3.60274 22.519 3.85573C22.3319 4.10872 22.3854 4.4655 22.6384 4.65268C24.2231 5.82456 25.5369 7.36738 26.4378 9.11447C27.3818 10.9451 27.8604 12.9253 27.8604 15.0001C27.8604 22.0913 22.0912 27.8605 15 27.8605C7.90879 27.8605 2.13959 22.0913 2.13959 15C2.13959 7.90869 7.90879 2.13959 15 2.13959C15.3146 2.13959 15.5698 1.88442 15.5698 1.5698C15.5698 1.25517 15.3146 1 15 1C7.28039 1 1 7.28039 1 15C1 22.7196 7.28039 29 15 29C22.7196 29 29 22.7196 29 15C29 12.7736 28.4643 10.5579 27.4506 8.59216Z" fill="white" stroke="white"/>
<path d="M11.4174 8.49926C11.2393 8.60059 11.1292 8.78976 11.1292 8.99461V21.4992C11.1292 21.8139 11.3844 22.069 11.699 22.069C12.0136 22.069 12.2688 21.8139 12.2688 21.4992V9.99697L20.7049 15.0191L14.5014 19.0159C14.2369 19.1864 14.1605 19.539 14.331 19.8035C14.5016 20.068 14.8541 20.1444 15.1186 19.9738L22.0953 15.4788C22.2611 15.372 22.3599 15.187 22.3564 14.9897C22.3529 14.7925 22.2477 14.6111 22.0781 14.5101L11.9905 8.50496C11.8142 8.40021 11.5956 8.39793 11.4174 8.49926Z" fill="white" stroke="white"/>
</svg>
